<svg xmlns="http://www.w3.org/2000/svg" xmlns:xlink="http://www.w3.org/1999/xlink" version="1.1" x="0px" y="0px" viewBox="0 0 26 26" style="enable-background:new 0 0 26 26;" xml:space="preserve">
  <polygon points="8.5,11.5 8.5,10.5 8.5,9.5 7.5,9.5 7.5,10.5 6.5,10.5 6.5,11.5 7.5,11.5 "/>
  <polygon points="14.5,8.5 15.5,8.5 16.5,8.5 16.5,7.5 15.5,7.5 15.5,6.5 14.5,6.5 14.5,7.5 "/>
  <polygon points="17.5,14.5 17.5,15.5 17.5,16.5 18.5,16.5 18.5,15.5 19.5,15.5 19.5,14.5 18.5,14.5 "/>
  <rect x="11.5" y="5.5" width="3" height="1"/>
  <rect x="19.5" y="11.5" width="1" height="3"/>
  <rect x="5.5" y="11.5" width="1" height="3"/>
  <rect x="11.5" y="9.5" width="3" height="1"/>
  <rect x="10.5" y="10.5" width="1" height="1"/>
  <rect x="9.5" y="11.5" width="1" height="3"/>
  <rect x="14.5" y="10.5" width="1" height="1"/>
  <rect x="15.5" y="11.5" width="1" height="3"/>
  <rect x="10.5" y="14.5" width="1" height="1"/>
  <rect x="14.5" y="14.5" width="1" height="1"/>
  <rect x="11.5" y="15.5" width="3" height="1"/>
  <polygon points="11.5,17.5 10.5,17.5 9.5,17.5 9.5,18.5 10.5,18.5 10.5,19.5 11.5,19.5 11.5,18.5 "/>
  <rect x="11.5" y="19.5" width="3" height="1"/>
  <polygon points="10.5,8.5 11.5,8.5 11.5,7.5 11.5,6.5 10.5,6.5 10.5,7.5 9.5,7.5 9.5,8.5 "/>
  <polygon points="9.5,7.5 9.5,6.5 8.5,6.5 7.5,6.5 7.5,7.5 8.5,7.5 "/>
  <polygon points="7.5,7.5 6.5,7.5 6.5,8.5 6.5,9.5 7.5,9.5 7.5,8.5 "/>
  <polygon points="17.5,10.5 17.5,11.5 18.5,11.5 19.5,11.5 19.5,10.5 18.5,10.5 18.5,9.5 17.5,9.5 "/>
  <rect x="16.5" y="6.5" width="2" height="1"/>
  <rect x="18.5" y="7.5" width="1" height="2"/>
  <polygon points="15.5,17.5 14.5,17.5 14.5,18.5 14.5,19.5 15.5,19.5 15.5,18.5 16.5,18.5 16.5,17.5 "/>
  <rect x="16.5" y="18.5" width="2" height="1"/>
  <rect x="18.5" y="16.5" width="1" height="2"/>
  <polygon points="8.5,15.5 8.5,14.5 7.5,14.5 6.5,14.5 6.5,15.5 7.5,15.5 7.5,16.5 8.5,16.5 "/>
  <rect x="6.5" y="16.5" width="1" height="2"/>
  <rect x="7.5" y="18.5" width="2" height="1"/>
</svg>
