<svg xmlns="http://www.w3.org/2000/svg" viewBox="0 0 90 100" x="0px" y="0px">
  <title>pixel</title>
  <g data-name="Layer 1">
    <polygon points="42.2 23.08 44.77 23.08 44.77 17.95 42.2 17.95 42.2 12.84 44.77 12.84 44.77 7.72 39.64 7.72 39.64 12.83 37.08 12.83 37.08 17.96 39.64 17.96 39.64 23.07 37.08 23.07 37.08 28.19 42.2 28.19 42.2 23.08"/>
    <polygon points="54.84 28.19 59.97 28.19 59.97 23.07 57.4 23.07 57.4 17.96 59.97 17.96 59.97 12.83 57.4 12.83 57.4 7.72 52.28 7.72 52.28 12.84 54.84 12.84 54.84 17.95 52.28 17.95 52.28 23.08 54.84 23.08 54.84 28.19"/>
    <polygon points="72.6 23.08 75.16 23.08 75.16 17.95 72.6 17.95 72.6 12.84 75.16 12.84 75.16 7.72 70.04 7.72 70.04 12.83 67.48 12.83 67.48 17.96 70.04 17.96 70.04 23.07 67.48 23.07 67.48 28.19 72.6 28.19 72.6 23.08"/>
    <path d="M65.48,31.09H34.76v5.12H24.52v5.12H19.4v5.12H14.28V66.93H19.4v5.12h5.12v5.11H34.76v5.12h41V31.09ZM29.64,66.93V61.81H24.52V51.57h5.12V46.45h5.12V66.93Z"/>
  </g>
</svg>
