<svg xmlns="http://www.w3.org/2000/svg" xmlns:xlink="http://www.w3.org/1999/xlink" version="1.1" x="0px" y="0px" viewBox="0 0 100 100" enable-background="new 0 0 100 100" xml:space="preserve">
  <g>
    <polygon points="57.69,23.07 53.85,23.07 50,23.07 46.14,23.07 42.31,23.07 38.45,23.07 34.62,23.07 34.62,26.93 34.62,30.76    34.62,34.62 34.62,38.45 34.62,42.31 34.62,46.14 34.62,50 34.62,53.86 34.62,57.69 34.62,61.55 34.62,65.38 34.62,69.239    34.62,73.069 38.45,73.069 42.31,73.069 46.14,73.069 50,73.069 53.85,73.069 57.69,73.069 61.54,73.069 65.38,73.069    65.38,69.239 65.38,65.38 65.38,61.55 65.38,57.69 65.38,53.86 65.38,50 65.38,46.14 65.38,42.31 65.38,38.45 65.38,34.62    65.38,30.76 65.38,26.93 65.38,23.07 61.54,23.07  "/>
    <path d="M73.07,7.69V3.86h-3.83h-3.86h-3.84h-3.85H53.85H50h-3.86h-3.83H38.45h-3.83h-3.86h-3.83v3.83H23.07v3.86v3.83v3.86v3.83   v3.86v3.83v3.86v3.83v3.86v3.83V50v3.86v3.83v3.859v3.83v3.859v3.83v3.86v3.83v3.86v3.83v3.859h3.859h3.83v3.83h3.86h3.83h3.859   h3.83H50h3.85h3.841h3.85h3.84h3.86v-3.83h3.83h3.859V88.45v-3.83v-3.86v-3.83v-3.86v-3.83V65.38v-3.83V57.69v-3.83V50v-3.86v-3.83   v-3.86v-3.83v-3.86v-3.83v-3.86v-3.83v-3.86v-3.83V7.69H73.07z M38.45,11.55h3.859h3.83H50h3.85h3.841h3.85v3.83h-3.85H53.85H50   h-3.86h-3.83H38.45V11.55z M53.85,84.62v3.83H50h-3.86v-3.83v-3.86H50h3.85V84.62z M69.24,23.07v3.86v3.83v3.86v3.83v3.86v3.83V50   v3.86v3.83v3.859v3.83v3.859v3.83v3.86h-3.86h-3.84h-3.85H53.85H50h-3.86h-3.83H38.45h-3.83h-3.86v-3.86v-3.83V65.38v-3.83V57.69   v-3.83V50v-3.86v-3.83v-3.86v-3.83v-3.86v-3.83v-3.86v-3.83h3.86h3.83h3.859h3.83H50h3.85h3.841h3.85h3.84h3.86V23.07z"/>
  </g>
</svg>
