<svg role="img" viewBox="0 0 50 50" xmlns="http://www.w3.org/2000/svg" version="1.1" xmlns:xlink="http://www.w3.org/1999/xlink">
  <path d="M49.945,18.673C49.806,18.271,49.427,18,49,18H31.707L25.943,1.667C25.802,1.268,25.424,1,25,1s-0.802,0.268-0.943,0.667 L18.293,18H1c-0.427,0-0.806,0.271-0.945,0.673c-0.139,0.403-0.008,0.85,0.327,1.113l13.447,10.565L8.052,47.684 c-0.137,0.408,0.004,0.857,0.347,1.115c0.344,0.258,0.813,0.269,1.168,0.025L25,38.214l15.434,10.61C40.604,48.941,40.803,49,41,49 c0.212,0,0.424-0.067,0.602-0.201c0.343-0.258,0.483-0.707,0.347-1.115l-5.777-17.332l13.447-10.565 C49.953,19.522,50.084,19.076,49.945,18.673z M32,30l-3-2v2c0,0.552-0.448,1-1,1h-8c-0.552,0-1-0.448-1-1v-4h-0.5 c-0.276,0-0.5-0.224-0.5-0.5v-1c0-0.276,0.224-0.5,0.5-0.5H19c0-0.552,0.448-1,1-1h8c0.552,0,1,0.448,1,1v2l3-2V30z"></path>
</svg>